<?xml version="1.0" encoding="utf-8"?>
<svg xmlns="http://www.w3.org/2000/svg" width="512" height="512" viewBox="0 0 512 512">
    <g fill="#9D9D9D" fill-rule="evenodd">
        <path d="M355.937 181.432c-5.767 0-10.457-4.691-10.457-10.457 0-5.555-4.504-10.06-10.06-10.06-5.555 0-10.06 4.505-10.06 10.06 0 16.859 13.717 30.575 30.577 30.575h1.11v12.157c0 5.555 4.504 10.059 10.059 10.059s10.059-4.504 10.059-10.06v-12.178c17.549-.465 31.686-14.875 31.686-32.536v-10.687c0-17.952-14.606-32.557-32.558-32.557H357.92c-6.86 0-12.44-5.581-12.44-12.44v-10.686c0-6.86 5.582-12.44 12.44-12.44h20.357c5.765 0 10.456 4.692 10.456 10.457 0 5.555 4.504 10.059 10.059 10.059s10.059-4.504 10.059-10.06c0-16.858-13.715-30.573-30.574-30.573h-1.111V57.908c0-5.555-4.504-10.06-10.06-10.06-5.554 0-10.058 4.505-10.058 10.06v12.18c-17.55.465-31.686 14.875-31.686 32.535v10.687c0 17.952 14.605 32.557 32.558 32.557h18.373c6.859 0 12.439 5.58 12.439 12.439v10.687c0 6.859-5.58 12.439-12.44 12.439h-20.355zM138.9 427.491a6.078 6.078 0 0 1-3.233 3.385 11.03 11.03 0 0 0-.426.201l-24.464 12.358-27.167-62.128a9.052 9.052 0 1 0-16.589 7.253l27.57 63.052-72.444 36.598.43-153.615 59.065-26.079a6.086 6.086 0 0 1 4.68-.107 6.073 6.073 0 0 1 3.384 3.231l46.513 105.344.012.027 2.562 5.802a6.08 6.08 0 0 1 .107 4.678m366.61-91.282c-8.446-19.129-30.883-27.819-50.011-19.374l-.134.061-64.625 29.803c-4.54 2.094-6.524 7.472-4.43 12.012 2.093 4.54 7.47 6.523 12.012 4.429l64.552-29.768a19.676 19.676 0 0 1 15.103-.322 19.683 19.683 0 0 1 10.969 10.473c4.414 9.996-.128 21.72-10.124 26.134l-132.25 58.391c-21.184 9.354-45.23 8.808-65.97-1.495l-48.41-24.049c-25.568-12.703-55.214-13.378-81.337-1.845l-1.72.759-36.857-83.475 50.997-22.516c24.128-10.653 51.05-11.513 75.809-2.421l97.35 35.75c9.306 3.417 14.265 13.828 11.056 23.207-3.27 9.556-13.715 14.696-23.283 11.464l-75.281-25.463a9.054 9.054 0 0 0-5.801 17.151l75.28 25.463a36.244 36.244 0 0 0 11.643 1.922c15.179 0 29.4-9.555 34.574-24.677 6.369-18.616-3.474-39.281-21.946-46.064l-97.35-35.75c-29.186-10.72-60.925-9.705-89.364 2.854l-51.2 22.606c-6.227-10.188-19.218-14.466-30.434-9.514L9.886 320.408a9.053 9.053 0 0 0-5.397 8.256l-.49 174.257a9.053 9.053 0 0 0 13.137 8.106l126.084-63.694c5.802-2.635 10.257-7.349 12.564-13.301 2.007-5.183 2.178-10.769.53-15.991l1.856-.82c21.185-9.353 45.23-8.807 65.97 1.497l48.41 24.049c25.57 12.704 55.218 13.374 81.338 1.844l132.249-58.391c19.128-8.447 27.819-30.881 19.373-50.011"/>
        <path d="M60.87 341.81c5.578 0 10.1 4.521 10.1 10.1 0 5.578-4.522 10.1-10.1 10.1-5.578 0-10.1-4.522-10.1-10.1 0-5.579 4.522-10.1 10.1-10.1M367.107 20.118c63.952 0 115.98 52.029 115.98 115.981 0 63.953-52.028 115.982-115.98 115.982-63.953 0-115.982-52.029-115.982-115.982 0-63.952 52.03-115.981 115.982-115.981m0 252.081c75.045 0 136.1-61.054 136.1-136.1C503.206 61.054 442.151 0 367.106 0c-75.046 0-136.1 61.054-136.1 136.099 0 75.046 61.053 136.1 136.1 136.1"/>
    </g>
</svg>
